# xmcd
#
# Track frame offsets: 
#        150
#        40561
#        60897
#        82362
#        100450
#        119848
#        141609
#        168032
#
# Disc length: 2665 seconds
#
# Revision: 0
# Processed by: cddbd v1.4PL0 Copyright (c) Steve Scherf et al.
# Submitted via: ExactAudioCopy v0.90b4
#
DISCID=6e0a6708
DTITLE=Pat TRavers - Jacksonville, FL
DYEAR=1900
DGENRE=Blues
TTITLE0=Love Can't Be Right
TTITLE1=Rather See You Dead
TTITLE2=You Don't Love Me
TTITLE3=No Getting Over Me
TTITLE4=Gone
TTITLE5=Snortin' Whiskey Drinkin' Cocaine
TTITLE6=Rock and Roll
TTITLE7=Boom Boom Out Go the Lights
EXTD=
EXTT0=
EXTT1=
EXTT2=
EXTT3=
EXTT4=
EXTT5=
EXTT6=
EXTT7=
PLAYORDER=
